<svg xmlns="http://www.w3.org/2000/svg"  viewBox="0 0 64 64" width="64px" height="64px"><path d="M28,41a1,1,0,0,1-1,1H21a1,1,0,0,1,0-2h6A1,1,0,0,1,28,41Zm-1-7H21a1,1,0,0,0,0,2h6a1,1,0,0,0,0-2Zm-7-5V27a4.99373,4.99373,0,0,1,3.29022-4.67938,5.0001,5.0001,0,1,1,7.41956,0A4.99373,4.99373,0,0,1,34,27v2a1,1,0,0,1-1,1H21A1,1,0,0,1,20,29Zm4-10a3,3,0,1,0,3-3A3.00328,3.00328,0,0,0,24,19ZM42,52H31a1,1,0,0,0,0,2H42a1,1,0,0,0,0-2ZM27,46H21a1,1,0,0,0,0,2h6a1,1,0,0,0,0-2Zm0,6H21a1,1,0,0,0,0,2h6a1,1,0,0,0,0-2ZM49,40H31a1,1,0,0,0,0,2H49a1,1,0,0,0,0-2Zm0-24H39a1,1,0,0,0,0,2H49a1,1,0,0,0,0-2Zm0,6H39a1,1,0,0,0,0,2H49a1,1,0,0,0,0-2Zm7-9V51.34a4.99356,4.99356,0,0,1-1.46,3.54l-5.66,5.66A4.99362,4.99362,0,0,1,45.34,62H19a5.00181,5.00181,0,0,1-5-5V56H13a5.00181,5.00181,0,0,1-5-5V7a5.00181,5.00181,0,0,1,5-5H45a5.00181,5.00181,0,0,1,5,5V8h1A5.00181,5.00181,0,0,1,56,13Zm-2,0a3.00879,3.00879,0,0,0-3-3H19a3.00883,3.00883,0,0,0-3,3V57a3.00883,3.00883,0,0,0,3,3H45.34a2.90771,2.90771,0,0,0,.66-.08V55a3.00883,3.00883,0,0,1,3-3h4.92a2.90766,2.90766,0,0,0,.08-.66ZM49,46H31a1,1,0,0,0,0,2H49a1,1,0,0,0,0-2Zm0-12H31a1,1,0,0,0,0,2H49a1,1,0,0,0,0-2Zm0-6H39a1,1,0,0,0,0,2H49a1,1,0,0,0,0-2Z"/></svg>